<svg data-v-423bf9ae="" xmlns="http://www.w3.org/2000/svg" viewBox="0 0 231.66197411127848 183" class="iconAbove"><!----><!----><!----><g data-v-423bf9ae="" id="3fffbf07-167c-4ff5-a3d0-df0ce166c233" fill="black" transform="matrix(5.633802890777588,0,0,5.633802890777588,-5.7464799880981445,123.3584213256836)"><path d="M2.30 10.50L2.30 0C1.20 0 2.11 0 1.02 0L1.02 10.50ZM4.31 10.50L5.59 10.50L5.59 5.46L5.43 2.25L5.47 2.25L6.38 5.35L8.02 10.50L9.38 10.50L9.38 0.04L8.11 0.04L8.11 3.72L8.34 7.71L8.30 7.71L7.22 3.79L6.03 0.04L4.31 0.04ZM12.68 4.93L12.68 1.32L15.69 1.32L15.69 0.06C14 0.06 13.10 0.06 11.41 0.06L11.41 10.50C11.84 10.50 12.26 10.50 12.68 10.50L12.68 6.20L15.20 6.20L15.20 4.93ZM18.41 1.30L19.70 1.30L20.55 2.16L20.55 4.76L19.68 5.70L18.41 5.70ZM18.41 6.97L19.52 6.97L21.15 10.50L22.55 10.50L20.69 6.48L21.83 5.26L21.83 1.64L20.22 0.01L17.14 0.01L17.14 10.50L18.41 10.50ZM25.02 4.68L25.02 1.29L28.04 1.29L28.04 0.01C26.35 0.01 25.44 0.01 23.74 0.01L23.74 10.50L28.24 10.50L28.24 9.23L25.02 9.23L25.02 5.95L27.55 5.95L27.55 4.68ZM33.40 3.09L34.68 3.09L34.68 1.51L33.15-0.08L31.16-0.08L29.64 1.51L29.64 8.88L31.15 10.57L33.15 10.57L34.68 8.88L34.68 7.22L33.40 7.24L33.40 8.40L32.59 9.30L31.71 9.30L30.91 8.40L30.91 2.02L31.70 1.19L32.61 1.19L33.40 2.02ZM37.74 0.04L36.47 0.04L36.47 10.50L37.74 10.50L37.74 5.53L38.42 5.53L40.74 10.50L42.14 10.50L39.52 4.90L41.82 0.04L40.42 0.04L38.42 4.26L37.74 4.26Z"></path></g><!----><g data-v-423bf9ae="" id="b8c71942-22cd-4b85-bc7f-0ca5d5e407e4" transform="matrix(1.1050777435302734,0,0,1.1050777435302734,60.74611282348633,0.04614102467894554)" stroke="none" fill="black"><path d="M20.306 20.038l2.444 3.265-4.897 3.667-2.445-3.266zM30.098 12.703l2.445 3.265-4.897 3.667-2.445-3.264zM76.037 14.929l-5.16-.982.685-4.02 5.161.981zM59.502 7.87l6.03 1.028-.685 4.02-6.03-1.028zM47.439 5.813L53.47 6.84l-.685 4.02-6.031-1.027zM35.877 70.26l2.994 5.334-3.557 1.997-2.994-5.334zM29.888 59.59l2.994 5.335-3.556 1.997-2.995-5.334zM60.27 79.14l1.918 3.6-5.4 2.875-1.916-3.6zM71.073 73.398L72.99 77l-5.4 2.874-1.917-3.6zM81.873 67.648l1.916 3.601-5.4 2.874-1.916-3.601z"></path><path d="M82.04 20.794l-.746-.01c-2.653 0-6.355-2.418-6.355-6.356 0-4.375 2.554-7.315 6.355-7.315 4.519 0 7.315 3.3 7.315 6.356 0 2.822-.814 4.878-2.422 6.11-1.416 1.089-3.046 1.215-4.147 1.215zm-.746-9.603c-1.981 0-2.277 2.028-2.277 3.237 0 1.571 1.811 2.277 2.277 2.277l.746.01c.551 0 1.236-.042 1.666-.372.532-.408.825-1.429.825-2.875 0-.768-.977-2.277-3.237-2.277zM93.43 68.741l-.745-.01c-2.654 0-6.355-2.418-6.355-6.355 0-4.376 2.555-7.316 6.355-7.316 4.519 0 7.315 3.3 7.315 6.356 0 2.822-.814 4.879-2.422 6.111-1.418 1.087-3.047 1.214-4.148 1.214zm-.745-9.602c-1.981 0-2.276 2.027-2.276 3.237 0 1.57 1.809 2.276 2.276 2.276l.745.01c.551 0 1.237-.042 1.666-.371.533-.408.825-1.429.825-2.875 0-.77-.978-2.277-3.236-2.277zM77.243 99.457l-.746-.01c-2.653 0-6.355-2.417-6.355-6.354 0-4.376 2.554-7.316 6.355-7.316 4.518 0 7.315 3.3 7.315 6.356 0 2.822-.814 4.878-2.422 6.11-1.417 1.088-3.045 1.214-4.147 1.214zm-.746-9.603c-1.981 0-2.276 2.028-2.276 3.238 0 1.57 1.81 2.276 2.276 2.276l.746.01c.55 0 1.235-.043 1.665-.371.532-.408.825-1.43.825-2.875 0-.769-.976-2.278-3.236-2.278zM45.045 96.412l-.746-.01c-2.654 0-6.355-2.419-6.355-6.356 0-4.375 2.554-7.314 6.355-7.314 4.518 0 7.315 3.3 7.315 6.356 0 2.822-.814 4.878-2.422 6.11-1.418 1.088-3.046 1.214-4.147 1.214zm-.746-9.602c-1.882 0-2.277 1.76-2.277 3.236 0 1.572 1.811 2.278 2.277 2.278l.746.01c.55 0 1.236-.043 1.665-.371.532-.408.826-1.43.826-2.875 0-.77-.977-2.278-3.237-2.278zM19.762 88.666l-.746-.011c-2.654 0-6.355-2.417-6.355-6.354 0-4.376 2.554-7.316 6.355-7.316 4.518 0 7.315 3.3 7.315 6.356 0 2.822-.814 4.878-2.422 6.111-1.418 1.087-3.046 1.214-4.147 1.214zm-.746-9.604c-1.981 0-2.277 2.028-2.277 3.238 0 1.57 1.81 2.276 2.277 2.276l.746.01c.55 0 1.236-.043 1.665-.371.532-.408.826-1.429.826-2.875-.001-.769-.978-2.278-3.237-2.278zM25.456 63.261l-.746-.01c-2.654 0-6.356-2.418-6.356-6.355 0-4.376 2.554-7.316 6.356-7.316 4.518 0 7.315 3.3 7.315 6.356 0 2.822-.814 4.879-2.421 6.111-1.419 1.087-3.047 1.214-4.148 1.214zm-.746-9.604c-1.981 0-2.277 2.028-2.277 3.238 0 1.57 1.81 2.276 2.277 2.276l.746.01c.55 0 1.236-.042 1.666-.371.532-.408.825-1.429.825-2.875-.001-.769-.978-2.278-3.237-2.278zM11.57 31.674l1.385-1.037-2.444-3.265-1.491 1.116c1.464.729 2.35 1.989 2.55 3.186z"></path><path d="M7.102 39.513l-.746-.011C3.701 39.502 0 37.085 0 33.146c0-4.375 2.554-7.315 6.355-7.315 4.518 0 7.315 3.3 7.315 6.356 0 2.823-.815 4.878-2.422 6.112-1.417 1.087-3.045 1.214-4.146 1.214zm-.747-9.604c-1.981 0-2.277 2.028-2.277 3.237 0 1.571 1.811 2.278 2.277 2.278l.746.01c.55 0 1.236-.042 1.665-.372.532-.408.826-1.429.826-2.875 0-.77-.977-2.278-3.237-2.278zM38.788 7.316c0-.409.034-.803.089-1.185l-3.881 2.907 2.445 3.265 2.675-2.003c-.758-.711-1.328-1.704-1.328-2.984z"></path><path d="M43.851 13.682l-.746-.01c-2.654 0-6.355-2.418-6.355-6.355C36.749 2.94 39.303 0 43.104 0c4.518 0 7.315 3.3 7.315 6.357 0 2.822-.815 4.878-2.422 6.11-1.417 1.089-3.045 1.215-4.146 1.215zm-.747-9.603c-1.981 0-2.277 2.028-2.277 3.237 0 1.571 1.811 2.277 2.277 2.277l.746.01c.55 0 1.236-.042 1.665-.372.532-.408.826-1.429.826-2.875 0-.769-.977-2.277-3.237-2.277zM19.016 77.023c1.354 0 2.459.399 3.314.991l3.362-16.796c-.381.008-.722-.008-.982-.008-.781 0-1.983-.427-2.921-1.273l-3.435 17.156c.217-.03.426-.07.662-.07zM44.04 84.796l-2.17-3.864-3.557 1.998 2.304 4.103c.639-1.296 1.778-2.15 3.423-2.237z"></path><path d="M40.079 90.898a4.027 4.027 0 0 1-.096-.852c0-1.224.262-2.334.763-3.229l-16.465-5.568c0 .03.011.062.011.092 0 1.882-.414 3.09-1.017 3.873l16.804 5.684zM49.575 89.088c0 .137-.012.253-.016.383l1.829-.975-1.917-3.601-1.762.939c1.201.875 1.866 2.14 1.866 3.254zM88.707 63.979l-11.623 23.89c1.631.146 2.874.859 3.666 1.787l11.22-23.06c-1.142-.274-2.613-1.146-3.263-2.617zM44.524 10.188l-4.003.785 3.06 15.61c1.679.082 3.122.44 4.349.984l-3.406-17.379zM28.566 53.026c.923.845 1.419 1.938 1.419 2.909 0 .338-.016.649-.041.945l8.349-3.804a42.96 42.96 0 0 1-2.446-3.367l-7.281 3.317zM31.677 37.166l-20.14-3.619c-.346 2.606-1.688 3.498-2.992 3.787l12.391 16.823c.589-1.345 1.68-2.261 3.28-2.424l-9.985-13.558 17.847 3.207a16.03 16.03 0 0 1-.433-3.615c.001-.203.022-.401.032-.601zM43.366 84.867c.293-.059.601-.098.933-.098 1.233 0 2.267.327 3.088.831l2.61-22.588c-.928-.118-2.007-.612-3.866-2.075l-2.765 23.93zM72.893 89.948c.671-1.257 1.821-2.081 3.487-2.121L57.631 58.762c-.996.932-2.084 1.863-3.165 2.617l18.427 28.569zM50.836 55.752l.047-.406-.218.14zM85.475 17.574c-1.127 1.363-2.857 1.335-3.88 1.314l8.665 37.119-22.987-9.903a32.626 32.626 0 0 1-2.002 3.578l23.546 10.145c.616-1.62 1.882-2.728 3.869-2.728.784 0 1.481.141 2.103.366l-9.314-39.891zM67.538 31.637l12.531-13.003c-1.146-.42-2.435-1.376-2.903-2.865L64.715 28.688a11.315 11.315 0 0 1 2.823 2.949z"></path><path d="M58.157 30.121c-6.374 0-7.647 5.607-7.647 5.607s-1.02-5.607-7.647-5.607a7.646 7.646 0 0 0-7.647 7.646c0 9.985 13.935 21.711 15.294 21.711 1.869 0 15.295-11.853 15.295-21.711a7.647 7.647 0 0 0-7.648-7.646z"></path></g><!----></svg>