<svg data-v-fde0c5aa="" xmlns="http://www.w3.org/2000/svg" viewBox="0 0 300 300" class="font"><!----><defs data-v-fde0c5aa=""><!----></defs><rect data-v-fde0c5aa="" fill="transparent" x="0" y="0" width="300px" height="300px" class="logo-background-square"></rect><defs data-v-fde0c5aa=""><linearGradient data-v-fde0c5aa="" gradientTransform="rotate(25)" id="42e6ea69-918b-430a-8a2c-772943160be8" x1="0%" y1="0%" x2="100%" y2="0%"><stop data-v-fde0c5aa="" offset="0%" stop-color="#FF0022" stop-opacity="1"></stop><stop data-v-fde0c5aa="" offset="100%" stop-color="#84014E" stop-opacity="1"></stop></linearGradient></defs><g data-v-fde0c5aa="" id="a45101d2-2e8e-46a9-9920-20e3ba32e238" fill="url(#42e6ea69-918b-430a-8a2c-772943160be8)" transform="matrix(5.350194454193115,0,0,5.350194454193115,34.54280151671328,121.93822985396582)"><path d="M2.30 10.50L2.30 0C1.20 0 2.11 0 1.02 0L1.02 10.50ZM4.31 10.50L5.59 10.50L5.59 5.46L5.43 2.25L5.47 2.25L6.38 5.35L8.02 10.50L9.38 10.50L9.38 0.04L8.11 0.04L8.11 3.72L8.34 7.71L8.30 7.71L7.22 3.79L6.03 0.04L4.31 0.04ZM12.68 4.93L12.68 1.32L15.69 1.32L15.69 0.06C14 0.06 13.10 0.06 11.41 0.06L11.41 10.50C11.84 10.50 12.26 10.50 12.68 10.50L12.68 6.20L15.20 6.20L15.20 4.93ZM18.41 1.30L19.70 1.30L20.55 2.16L20.55 4.76L19.68 5.70L18.41 5.70ZM18.41 6.97L19.52 6.97L21.15 10.50L22.55 10.50L20.69 6.48L21.83 5.26L21.83 1.64L20.22 0.01L17.14 0.01L17.14 10.50L18.41 10.50ZM25.02 4.68L25.02 1.29L28.04 1.29L28.04 0.01C26.35 0.01 25.44 0.01 23.74 0.01L23.74 10.50L28.24 10.50L28.24 9.23L25.02 9.23L25.02 5.95L27.55 5.95L27.55 4.68ZM33.40 3.09L34.68 3.09L34.68 1.51L33.15-0.08L31.16-0.08L29.64 1.51L29.64 8.88L31.15 10.57L33.15 10.57L34.68 8.88L34.68 7.22L33.40 7.24L33.40 8.40L32.59 9.30L31.71 9.30L30.91 8.40L30.91 2.02L31.70 1.19L32.61 1.19L33.40 2.02ZM37.74 0.04L36.47 0.04L36.47 10.50L37.74 10.50L37.74 5.53L38.42 5.53L40.74 10.50L42.14 10.50L39.52 4.90L41.82 0.04L40.42 0.04L38.42 4.26L37.74 4.26Z"></path></g><!----><!----></svg>